<?xml version="1.0" encoding="UTF-8"?>
<!DOCTYPE svg PUBLIC "-//W3C//DTD SVG 1.1//EN" "http://www.w3.org/Graphics/SVG/1.1/DTD/svg11.dtd">
<svg xmlns="http://www.w3.org/2000/svg" version="1.1" width="1080px" height="1080px" style="shape-rendering:geometricPrecision; text-rendering:geometricPrecision; image-rendering:optimizeQuality; fill-rule:evenodd; clip-rule:evenodd" xmlns:xlink="http://www.w3.org/1999/xlink">
<g><path style="opacity:1" fill="#000000" d="M -0.5,-0.5 C 359.5,-0.5 719.5,-0.5 1079.5,-0.5C 1079.5,359.5 1079.5,719.5 1079.5,1079.5C 719.5,1079.5 359.5,1079.5 -0.5,1079.5C -0.5,719.5 -0.5,359.5 -0.5,-0.5 Z"/></g>
<g><path style="opacity:1" fill="#fefefe" d="M 598.5,528.5 C 595.139,515.946 588.805,505.113 579.5,496C 571.695,490.048 563.028,488.215 553.5,490.5C 570.91,456.013 586.41,420.68 600,384.5C 614.019,345.722 620.685,305.722 620,264.5C 618.96,254.049 616.293,244.049 612,234.5C 601.561,219.886 590.895,219.886 580,234.5C 570.143,249.881 562.143,266.214 556,283.5C 535.88,345.209 521.214,408.209 512,472.5C 507.421,506.795 503.255,541.128 499.5,575.5C 498.191,578.778 496.358,581.778 494,584.5C 488.035,568.537 478.868,554.703 466.5,543C 446.66,526.263 425.993,510.763 404.5,496.5C 415.497,421.009 436.331,348.342 467,278.5C 481.479,246.179 499.479,216.179 521,188.5C 535.375,171.577 552.541,158.411 572.5,149C 634.633,127.483 675.8,147.983 696,210.5C 698.42,219.352 700.087,228.352 701,237.5C 704.684,310.441 689.35,379.108 655,443.5C 638.625,473.617 619.792,501.951 598.5,528.5 Z"/></g>
<g><path style="opacity:1" fill="#010101" d="M 553.5,490.5 C 544.999,493.172 538.165,498.172 533,505.5C 524.303,527.253 514.636,548.587 504,569.5C 502.637,571.684 501.137,573.684 499.5,575.5C 503.255,541.128 507.421,506.795 512,472.5C 521.214,408.209 535.88,345.209 556,283.5C 562.143,266.214 570.143,249.881 580,234.5C 590.895,219.886 601.561,219.886 612,234.5C 616.293,244.049 618.96,254.049 620,264.5C 620.685,305.722 614.019,345.722 600,384.5C 586.41,420.68 570.91,456.013 553.5,490.5 Z"/></g>
<g><path style="opacity:1" fill="#fbfbfb" d="M 316.5,288.5 C 332.134,286.46 337.3,292.793 332,307.5C 329.921,309.79 327.421,311.457 324.5,312.5C 325.919,314.336 327.086,316.336 328,318.5C 331.373,343.639 320.539,354.806 295.5,352C 283.75,346.14 279.25,336.64 282,323.5C 286.69,309.99 296.19,303.99 310.5,305.5C 310.335,302.15 310.502,298.817 311,295.5C 312.666,293.004 314.5,290.671 316.5,288.5 Z"/></g>
<g><path style="opacity:1" fill="#fafafa" d="M 350.5,288.5 C 364.177,286.507 369.51,292.174 366.5,305.5C 388.827,304.326 397.661,314.659 393,336.5C 386.916,350.215 376.416,355.382 361.5,352C 351.671,348.319 346.671,341.152 346.5,330.5C 346.613,323.993 348.613,318.16 352.5,313C 343.93,308.969 341.43,302.469 345,293.5C 346.73,291.598 348.563,289.931 350.5,288.5 Z"/></g>
<g><path style="opacity:1" fill="#fb4f07" d="M 404.5,496.5 C 425.993,510.763 446.66,526.263 466.5,543C 478.868,554.703 488.035,568.537 494,584.5C 496.358,581.778 498.191,578.778 499.5,575.5C 501.137,573.684 502.637,571.684 504,569.5C 514.636,548.587 524.303,527.253 533,505.5C 538.165,498.172 544.999,493.172 553.5,490.5C 563.028,488.215 571.695,490.048 579.5,496C 588.805,505.113 595.139,515.946 598.5,528.5C 599.667,533.253 600.667,537.919 601.5,542.5C 601.752,551.213 601.252,559.88 600,568.5C 593.392,588.711 584.892,608.044 574.5,626.5C 556.435,656.223 531.435,678.223 499.5,692.5C 493.565,695.091 487.565,697.591 481.5,700C 459.044,731.732 428.377,749.232 389.5,752.5C 364.743,753.861 343.909,745.528 327,727.5C 309.459,701.711 310.459,676.711 330,652.5C 345.707,639.141 363.874,630.975 384.5,628C 372.368,611.701 357.535,598.534 340,588.5C 330.688,634.436 315.021,678.103 293,719.5C 281.904,737.965 265.737,745.465 244.5,742C 228.476,735.475 218.976,723.642 216,706.5C 215.333,700.5 215.333,694.5 216,688.5C 229.53,651.91 241.863,614.91 253,577.5C 260.859,528.717 266.859,479.717 271,430.5C 275.512,413.978 285.012,401.144 299.5,392C 317.448,381.459 336.781,376.459 357.5,377C 367.434,379.933 373.6,386.433 376,396.5C 376.804,414.543 376.304,432.543 374.5,450.5C 373.097,463.739 377.097,474.906 386.5,484C 392.122,488.802 398.122,492.969 404.5,496.5 Z"/></g>
<g><path style="opacity:1" fill="#020000" d="M 398.5,524.5 C 395.701,547.824 393.034,571.157 390.5,594.5C 369.28,575.546 345.947,559.546 320.5,546.5C 313.256,603.729 296.089,657.729 269,708.5C 263.791,716.031 256.958,718.197 248.5,715C 242.677,708.241 240.511,700.407 242,691.5C 256.129,655.445 268.463,618.778 279,581.5C 287.005,534.118 292.672,486.451 296,438.5C 299.126,426.376 306.292,417.542 317.5,412C 327.971,406.875 338.971,403.709 350.5,402.5C 348.96,423.123 348.46,443.789 349,464.5C 350.688,480.378 357.522,493.545 369.5,504C 378.845,511.335 388.512,518.168 398.5,524.5 Z"/></g>
<g><path style="opacity:1" fill="#fefdfd" d="M 390.5,594.5 C 393.034,571.157 395.701,547.824 398.5,524.5C 418.938,537.759 438.104,552.759 456,569.5C 462.297,577.758 467.297,586.758 471,596.5C 474.018,608.907 477.185,621.241 480.5,633.5C 495.523,622.59 508.356,609.59 519,594.5C 532.723,572.052 544.056,548.385 553,523.5C 556.408,514.747 561.075,513.747 567,520.5C 578.332,541.488 578.332,562.488 567,583.5C 558.129,605.428 545.629,624.928 529.5,642C 510.177,658.17 488.51,670.503 464.5,679C 443.544,712.314 413.211,727.981 373.5,726C 361.859,723.007 352.359,716.84 345,707.5C 335.982,683.366 343.815,667.2 368.5,659C 386.076,654.718 403.743,650.885 421.5,647.5C 415.511,627.174 405.178,609.508 390.5,594.5 Z"/></g>
<g><path style="opacity:1" fill="#fefefe" d="M 601.5,542.5 C 643.765,550.61 675.598,573.276 697,610.5C 711.6,636.302 720.6,663.969 724,693.5C 755.906,690.119 787.406,684.286 818.5,676C 830.839,672.403 840.339,675.903 847,686.5C 852.696,701.398 854.029,716.732 851,732.5C 849.157,743.701 843.657,752.535 834.5,759C 796.477,773.282 757.144,780.782 716.5,781.5C 703.339,840.71 671.339,886.543 620.5,919C 571.005,944.447 521.339,944.78 471.5,920C 450.233,907.4 433.733,890.233 422,868.5C 404.009,831.873 393.176,793.207 389.5,752.5C 428.377,749.232 459.044,731.732 481.5,700C 487.565,697.591 493.565,695.091 499.5,692.5C 488.164,731.751 488.997,770.751 502,809.5C 509.331,825.706 520.831,837.873 536.5,846C 562.945,852.032 584.779,844.532 602,823.5C 615.712,805.418 623.212,785.085 624.5,762.5C 594.203,740.264 577.036,710.264 573,672.5C 572.07,657.105 572.57,641.772 574.5,626.5C 584.892,608.044 593.392,588.711 600,568.5C 601.252,559.88 601.752,551.213 601.5,542.5 Z"/></g>
<g><path style="opacity:1" fill="#010101" d="M 574.5,626.5 C 572.57,641.772 572.07,657.105 573,672.5C 577.036,710.264 594.203,740.264 624.5,762.5C 623.212,785.085 615.712,805.418 602,823.5C 584.779,844.532 562.945,852.032 536.5,846C 520.831,837.873 509.331,825.706 502,809.5C 488.997,770.751 488.164,731.751 499.5,692.5C 531.435,678.223 556.435,656.223 574.5,626.5 Z"/></g>
<g><path style="opacity:1" fill="#f6f6f6" d="M 549.5,996.5 C 549.174,990.174 552.174,987.841 558.5,989.5C 559.226,977.218 563.892,966.718 572.5,958C 581.641,954.791 585.974,958.125 585.5,968C 585.399,976.535 582.066,983.535 575.5,989C 579.152,989.499 582.818,989.665 586.5,989.5C 587.039,992.695 586.039,995.195 583.5,997C 578.177,997.499 572.844,997.666 567.5,997.5C 567.334,1002.18 567.501,1006.85 568,1011.5C 568.881,1018.36 572.714,1020.86 579.5,1019C 581.96,1017.54 584.127,1015.71 586,1013.5C 585.963,998.864 587.963,984.531 592,970.5C 594.103,963.787 597.603,957.954 602.5,953C 612.71,948.685 617.71,952.185 617.5,963.5C 616.966,973.236 613.632,981.903 607.5,989.5C 614.589,992.005 618.589,997.005 619.5,1004.5C 621.591,1004.68 623.591,1004.35 625.5,1003.5C 626.819,999.892 627.986,996.225 629,992.5C 630.864,989.793 633.364,988.959 636.5,990C 637.704,991.353 638.371,993.019 638.5,995C 637.907,999.54 637.074,1004.04 636,1008.5C 633.961,1021.04 637.294,1022.71 646,1013.5C 644.992,997.319 647.325,981.652 653,966.5C 654.958,961.41 657.792,956.91 661.5,953C 667.624,948.957 672.458,950.124 676,956.5C 677.676,968.001 676.009,979.001 671,989.5C 666.612,998.013 662.112,1006.35 657.5,1014.5C 657.39,1016.37 658.056,1017.87 659.5,1019C 665.484,1019.92 669.984,1017.76 673,1012.5C 671.728,993.46 675.394,975.46 684,958.5C 688.707,950.102 694.707,948.768 702,954.5C 703.926,962.127 703.926,969.794 702,977.5C 700.667,981.5 699.333,985.5 698,989.5C 693.612,998.013 689.112,1006.35 684.5,1014.5C 684.5,1017.83 686.167,1019.5 689.5,1019.5C 694.712,1018.39 698.712,1015.56 701.5,1011C 704.567,1009.84 706.233,1010.84 706.5,1014C 702.445,1025.36 694.445,1030.03 682.5,1028C 679.689,1026.36 677.356,1024.19 675.5,1021.5C 669.422,1028.34 662.089,1030.17 653.5,1027C 651.649,1025.32 649.982,1023.48 648.5,1021.5C 643.816,1027.34 637.816,1029.51 630.5,1028C 626.164,1024.16 624.497,1019.33 625.5,1013.5C 623.167,1013.5 620.833,1013.5 618.5,1013.5C 615.413,1026.55 607.413,1031.05 594.5,1027C 592.649,1025.32 590.982,1023.48 589.5,1021.5C 581.352,1029.32 572.352,1030.48 562.5,1025C 561.36,1023.03 560.027,1021.19 558.5,1019.5C 550.776,1027.46 541.442,1030.3 530.5,1028C 527.438,1026.94 524.938,1025.11 523,1022.5C 515.723,1028.02 507.556,1029.85 498.5,1028C 492.01,1025.34 488.343,1020.51 487.5,1013.5C 483.818,1013.33 480.152,1013.5 476.5,1014C 473.19,1019.31 469.19,1023.97 464.5,1028C 461.208,1028.94 458.208,1028.44 455.5,1026.5C 453.947,1021.98 453.113,1017.32 453,1012.5C 451.197,1018.63 448.03,1023.79 443.5,1028C 441.167,1028.67 438.833,1028.67 436.5,1028C 434.944,1026.4 433.277,1024.9 431.5,1023.5C 426.344,1026.19 421.01,1028.35 415.5,1030C 412.167,1030.67 408.833,1030.67 405.5,1030C 400.34,1026.24 400.34,1022.57 405.5,1019C 407.568,1018.31 409.568,1018.48 411.5,1019.5C 412.449,1015.86 411.449,1012.69 408.5,1010C 407.668,1009.31 407.002,1009.48 406.5,1010.5C 403.78,1015.73 400.113,1020.23 395.5,1024C 391.338,1024.55 389.838,1022.71 391,1018.5C 398.187,1010.13 403.854,1000.8 408,990.5C 411.057,989.549 414.223,989.216 417.5,989.5C 417.245,992.016 416.411,994.35 415,996.5C 415.041,1001.59 417.041,1005.92 421,1009.5C 422.846,1012.57 423.846,1015.9 424,1019.5C 426.628,1017.87 428.961,1015.87 431,1013.5C 430.835,1006.51 430.835,999.508 431,992.5C 434.333,988.5 437.667,988.5 441,992.5C 441.333,1001.17 441.667,1009.83 442,1018.5C 445.862,1009.91 449.528,1001.25 453,992.5C 455.367,989.068 458.034,988.735 461,991.5C 461.572,1000.17 462.239,1008.84 463,1017.5C 468.013,1013.16 469.846,1007.83 468.5,1001.5C 468.947,993.666 472.947,989.832 480.5,990C 481.333,990.833 482.167,991.667 483,992.5C 483.76,996.225 483.593,999.892 482.5,1003.5C 484.5,1004.83 486.5,1004.83 488.5,1003.5C 493.314,991.25 501.648,987.584 513.5,992.5C 518.412,1000.53 517.079,1007.36 509.5,1013C 506.006,1014.22 502.673,1015.72 499.5,1017.5C 501.059,1019.7 503.226,1020.7 506,1020.5C 510.762,1019.95 515.096,1018.29 519,1015.5C 518.749,1006.51 521.915,999.008 528.5,993C 536.772,987.489 543.772,988.656 549.5,996.5 Z"/></g>
<g><path style="opacity:1" fill="#0f0f0f" d="M 605.5,959.5 C 606.822,959.33 607.989,959.663 609,960.5C 608.901,972.132 605.568,982.799 599,992.5C 599.1,981.1 601.266,970.1 605.5,959.5 Z"/></g>
<g><path style="opacity:1" fill="#0e0e0e" d="M 665.5,959.5 C 666.496,959.414 667.329,959.748 668,960.5C 668.627,974.961 664.96,988.294 657,1000.5C 656.577,991.364 657.577,982.364 660,973.5C 661.03,968.452 662.863,963.785 665.5,959.5 Z"/></g>
<g><path style="opacity:1" fill="#0e0e0e" d="M 692.5,959.5 C 693.496,959.414 694.329,959.748 695,960.5C 695.627,974.961 691.96,988.294 684,1000.5C 683.577,991.364 684.577,982.364 687,973.5C 688.03,968.452 689.863,963.785 692.5,959.5 Z"/></g>
<g><path style="opacity:1" fill="#101010" d="M 575.5,964.5 C 578.556,973.244 576.39,980.91 569,987.5C 568.961,979.182 571.128,971.516 575.5,964.5 Z"/></g>
<g><path style="opacity:1" fill="#f6f6f6" d="M 633.5,971.5 C 642.805,970.951 645.472,974.785 641.5,983C 633.189,986.78 629.356,984.28 630,975.5C 631.102,974.051 632.269,972.718 633.5,971.5 Z"/></g>
<g><path style="opacity:1" fill="#0b0b0b" d="M 549.5,996.5 C 550.391,997.11 551.391,997.443 552.5,997.5C 553.568,998.434 554.901,998.768 556.5,998.5C 556.5,1002.5 556.5,1006.5 556.5,1010.5C 550.981,1017.76 543.648,1020.92 534.5,1020C 533.5,1019 532.5,1018 531.5,1017C 539.433,1015.63 545.266,1011.46 549,1004.5C 549.497,1001.85 549.664,999.187 549.5,996.5 Z"/></g>
<g><path style="opacity:1" fill="#090909" d="M 502.5,998.5 C 507.068,998.083 508.568,1000.08 507,1004.5C 504.715,1007.89 501.548,1009.56 497.5,1009.5C 497.53,1004.98 499.197,1001.31 502.5,998.5 Z"/></g>
<g><path style="opacity:1" fill="#0e0e0e" d="M 534.5,998.5 C 541.316,998.874 542.316,1001.71 537.5,1007C 535.35,1008.41 533.016,1009.24 530.5,1009.5C 529.887,1005.07 531.22,1001.4 534.5,998.5 Z"/></g>
<g><path style="opacity:1" fill="#080808" d="M 602.5,998.5 C 604.358,1003.39 606.691,1008.22 609.5,1013C 608.163,1019.64 604.663,1021.14 599,1017.5C 597.466,1013.29 597.133,1008.96 598,1004.5C 598.804,1001.85 600.304,999.854 602.5,998.5 Z"/></g>
<g><path style="opacity:1" fill="#747474" d="M 552.5,997.5 C 554.167,997.5 555.833,997.5 557.5,997.5C 557.818,1002.03 557.485,1006.37 556.5,1010.5C 556.5,1006.5 556.5,1002.5 556.5,998.5C 554.901,998.768 553.568,998.434 552.5,997.5 Z"/></g>
</svg>
