<?xml version="1.0" encoding="UTF-8"?>
<!DOCTYPE svg PUBLIC "-//W3C//DTD SVG 1.1//EN" "http://www.w3.org/Graphics/SVG/1.1/DTD/svg11.dtd">
<svg xmlns="http://www.w3.org/2000/svg" version="1.1" width="1080px" height="1080px" style="shape-rendering:geometricPrecision; text-rendering:geometricPrecision; image-rendering:optimizeQuality; fill-rule:evenodd; clip-rule:evenodd" xmlns:xlink="http://www.w3.org/1999/xlink">
<g><path style="opacity:1" fill="#fefefe" d="M -0.5,-0.5 C 359.5,-0.5 719.5,-0.5 1079.5,-0.5C 1079.5,359.5 1079.5,719.5 1079.5,1079.5C 719.5,1079.5 359.5,1079.5 -0.5,1079.5C -0.5,719.5 -0.5,359.5 -0.5,-0.5 Z"/></g>
<g><path style="opacity:1" fill="#000000" d="M 598.5,528.5 C 595.31,515.814 588.977,504.981 579.5,496C 571.799,489.798 563.132,487.965 553.5,490.5C 570.301,456.898 585.467,422.565 599,387.5C 610.287,356.445 617.287,324.445 620,291.5C 621.68,274.149 620.013,257.149 615,240.5C 606.236,220.566 594.569,218.566 580,234.5C 566.93,255.015 556.93,277.015 550,300.5C 534.379,352.653 522.379,405.653 514,459.5C 507.854,497.999 503.021,536.666 499.5,575.5C 498.191,578.778 496.358,581.778 494,584.5C 487.696,568.195 478.196,554.028 465.5,542C 445.813,525.838 425.48,510.672 404.5,496.5C 415.767,419.532 437.267,345.532 469,274.5C 482.815,243.506 500.148,214.839 521,188.5C 537.257,169.23 557.091,155.063 580.5,146C 631.299,130.471 667.799,146.638 690,194.5C 695.388,208.385 699.055,222.718 701,237.5C 704.644,319.891 684.977,396.224 642,466.5C 628.708,488.108 614.208,508.775 598.5,528.5 Z"/></g>
<g><path style="opacity:1" fill="#fdfdfd" d="M 553.5,490.5 C 544.963,493.184 538.13,498.184 533,505.5C 525.942,522.616 518.609,539.616 511,556.5C 507.643,563.23 503.81,569.563 499.5,575.5C 503.021,536.666 507.854,497.999 514,459.5C 522.379,405.653 534.379,352.653 550,300.5C 556.93,277.015 566.93,255.015 580,234.5C 594.569,218.566 606.236,220.566 615,240.5C 620.013,257.149 621.68,274.149 620,291.5C 617.287,324.445 610.287,356.445 599,387.5C 585.467,422.565 570.301,456.898 553.5,490.5 Z"/></g>
<g><path style="opacity:1" fill="#040404" d="M 317.5,288.5 C 333.212,287.59 337.712,294.257 331,308.5C 329.075,310.213 326.908,311.547 324.5,312.5C 329.267,321.514 329.767,330.847 326,340.5C 317.151,352.756 305.651,355.923 291.5,350C 286.223,346.629 283.057,341.796 282,335.5C 280.366,314.966 289.866,304.966 310.5,305.5C 308.782,298.008 311.116,292.341 317.5,288.5 Z"/></g>
<g><path style="opacity:1" fill="#030303" d="M 350.5,288.5 C 364.177,286.507 369.51,292.174 366.5,305.5C 389.846,304.821 398.346,315.821 392,338.5C 385.457,350.68 375.29,355.18 361.5,352C 350.953,348.265 346.286,340.765 347.5,329.5C 346.952,322.93 348.952,317.263 353.5,312.5C 343.642,309.443 340.808,303.11 345,293.5C 346.73,291.598 348.563,289.931 350.5,288.5 Z"/></g>
<g><path style="opacity:1" fill="#fd5008" d="M 404.5,496.5 C 425.48,510.672 445.813,525.838 465.5,542C 478.196,554.028 487.696,568.195 494,584.5C 496.358,581.778 498.191,578.778 499.5,575.5C 503.81,569.563 507.643,563.23 511,556.5C 518.609,539.616 525.942,522.616 533,505.5C 538.13,498.184 544.963,493.184 553.5,490.5C 563.132,487.965 571.799,489.798 579.5,496C 588.977,504.981 595.31,515.814 598.5,528.5C 599.745,533.478 600.745,538.478 601.5,543.5C 601.839,552.226 601.339,560.893 600,569.5C 593.121,589.256 584.621,608.256 574.5,626.5C 565.425,641.767 554.091,655.267 540.5,667C 527.279,677.108 513.279,685.941 498.5,693.5C 492.865,695.647 487.198,697.813 481.5,700C 459.176,731.675 428.509,749.175 389.5,752.5C 364.722,753.855 343.889,745.522 327,727.5C 306.481,695.484 310.981,667.651 340.5,644C 354.287,636.293 368.954,630.959 384.5,628C 372.368,611.701 357.535,598.534 340,588.5C 330.701,634.394 315.034,678.061 293,719.5C 279.068,741.145 260.235,747.312 236.5,738C 222.938,728.893 215.938,716.059 215.5,699.5C 215.727,693.413 216.56,687.413 218,681.5C 230.532,648.569 241.866,615.236 252,581.5C 254.981,568.28 257.314,554.946 259,541.5C 263.952,504.597 267.952,467.597 271,430.5C 275.515,413.966 285.015,401.132 299.5,392C 317.448,381.459 336.781,376.459 357.5,377C 368.311,380.146 374.477,387.312 376,398.5C 376.703,416.035 376.203,433.535 374.5,451C 373.163,464.057 377.163,475.057 386.5,484C 392.122,488.802 398.122,492.969 404.5,496.5 Z"/></g>
<g><path style="opacity:1" fill="#fffdfd" d="M 398.5,524.5 C 395.505,547.792 392.839,571.125 390.5,594.5C 369.28,575.546 345.947,559.546 320.5,546.5C 313.769,601.759 297.602,654.093 272,703.5C 268.591,710.923 262.924,715.257 255,716.5C 247.068,715.373 242.735,710.706 242,702.5C 241.274,697.761 241.607,693.095 243,688.5C 256.995,653.183 268.995,617.183 279,580.5C 286.82,533.427 292.487,486.094 296,438.5C 298.706,427.124 305.206,418.624 315.5,413C 326.489,407.17 338.156,403.67 350.5,402.5C 350.605,417.883 349.938,433.217 348.5,448.5C 346.408,470.017 353.075,488.184 368.5,503C 378,510.912 388,518.079 398.5,524.5 Z"/></g>
<g><path style="opacity:1" fill="#010000" d="M 390.5,594.5 C 392.839,571.125 395.505,547.792 398.5,524.5C 412.902,534.062 426.902,544.228 440.5,555C 454.879,565.716 465.046,579.549 471,596.5C 473.607,609.054 476.773,621.388 480.5,633.5C 505.776,615.047 524.609,591.381 537,562.5C 543.351,547.803 549.684,533.136 556,518.5C 557.351,516.99 559.018,515.99 561,515.5C 563.281,516.776 565.281,518.443 567,520.5C 573.869,532.957 576.535,546.29 575,560.5C 567.056,587.724 554.389,612.391 537,634.5C 526.834,644.658 515.667,653.491 503.5,661C 490.518,667.992 477.184,674.159 463.5,679.5C 448.902,704.489 427.235,719.656 398.5,725C 379.069,729.851 362.235,725.351 348,711.5C 337.501,696.66 338.334,682.493 350.5,669C 355.887,664.638 361.887,661.305 368.5,659C 386.031,654.805 403.698,651.305 421.5,648.5C 415.802,627.763 405.469,609.763 390.5,594.5 Z"/></g>
<g><path style="opacity:1" fill="#000000" d="M 601.5,543.5 C 634.756,548.708 661.922,564.375 683,590.5C 706.192,620.891 719.692,655.224 723.5,693.5C 756.33,690.434 788.663,684.601 820.5,676C 834.657,672.661 844.157,677.828 849,691.5C 854.595,711.009 853.262,730.009 845,748.5C 841.285,754.444 836.118,758.611 829.5,761C 792.813,773.281 755.146,780.281 716.5,782C 703.187,841.025 671.187,886.692 620.5,919C 568.776,945.654 517.443,944.988 466.5,917C 439.848,898.242 421.015,873.408 410,842.5C 399.659,813.294 392.826,783.294 389.5,752.5C 428.509,749.175 459.176,731.675 481.5,700C 487.198,697.813 492.865,695.647 498.5,693.5C 490.207,726.297 489.374,759.297 496,792.5C 500.311,811.308 509.811,826.808 524.5,839C 543.817,851.227 563.484,851.56 583.5,840C 609.241,820.693 623.074,794.86 625,762.5C 603.563,747.388 588.563,727.388 580,702.5C 572.19,677.63 570.356,652.297 574.5,626.5C 584.621,608.256 593.121,589.256 600,569.5C 601.339,560.893 601.839,552.226 601.5,543.5 Z"/></g>
<g><path style="opacity:1" fill="#fdfdfd" d="M 574.5,626.5 C 570.356,652.297 572.19,677.63 580,702.5C 588.563,727.388 603.563,747.388 625,762.5C 623.074,794.86 609.241,820.693 583.5,840C 563.484,851.56 543.817,851.227 524.5,839C 509.811,826.808 500.311,811.308 496,792.5C 489.374,759.297 490.207,726.297 498.5,693.5C 513.279,685.941 527.279,677.108 540.5,667C 554.091,655.267 565.425,641.767 574.5,626.5 Z"/></g>
<g><path style="opacity:1" fill="#080808" d="M 556.5,1010.5 C 557.485,1006.37 557.818,1002.03 557.5,997.5C 555.833,997.5 554.167,997.5 552.5,997.5C 551.275,996.848 550.608,995.681 550.5,994C 550.667,992.833 550.833,991.667 551,990.5C 553.381,989.565 555.881,989.232 558.5,989.5C 559.402,977.282 564.069,966.782 572.5,958C 581.417,954.797 585.75,957.964 585.5,967.5C 585.529,976.255 582.195,983.422 575.5,989C 579.152,989.499 582.818,989.665 586.5,989.5C 587.275,993.182 585.941,995.682 582.5,997C 577.511,997.499 572.511,997.666 567.5,997.5C 567.334,1002.84 567.501,1008.18 568,1013.5C 569.829,1019.16 573.663,1020.99 579.5,1019C 582.295,1017.21 584.795,1015.04 587,1012.5C 585.625,992.711 589.625,974.045 599,956.5C 609.69,946.929 615.857,949.263 617.5,963.5C 616.851,973.619 613.185,982.453 606.5,990C 614.184,991.849 618.517,996.683 619.5,1004.5C 621.833,1004.5 624.167,1004.5 626.5,1004.5C 627.063,1000.03 628.23,995.696 630,991.5C 632.401,990.398 634.901,990.231 637.5,991C 638.097,992.062 638.43,993.228 638.5,994.5C 636.03,1002.34 635.197,1010.34 636,1018.5C 637.388,1019.55 638.888,1019.72 640.5,1019C 642.333,1017.17 644.167,1015.33 646,1013.5C 645.708,998.499 647.708,983.833 652,969.5C 653.972,961.35 658.472,955.184 665.5,951C 670.922,949.965 674.422,952.131 676,957.5C 677.229,970.16 674.895,982.16 669,993.5C 665.454,1000.77 661.288,1007.6 656.5,1014C 657.976,1019.14 661.31,1020.8 666.5,1019C 668.96,1017.54 671.127,1015.71 673,1013.5C 672.395,998.464 674.395,983.797 679,969.5C 680.888,964.055 683.555,959.055 687,954.5C 693.748,948.45 699.081,949.45 703,957.5C 703.667,962.833 703.667,968.167 703,973.5C 699.294,988.41 692.794,1001.91 683.5,1014C 684.976,1019.14 688.31,1020.8 693.5,1019C 696.833,1017 699.5,1014.33 701.5,1011C 702.793,1010.51 704.127,1010.34 705.5,1010.5C 705.664,1013.19 705.497,1015.85 705,1018.5C 700.651,1024.59 694.817,1027.92 687.5,1028.5C 685.035,1028.52 682.702,1028.02 680.5,1027C 678.707,1025.22 677.04,1023.39 675.5,1021.5C 670.143,1027.56 663.476,1029.73 655.5,1028C 652.663,1026.33 650.33,1024.16 648.5,1021.5C 643.816,1027.34 637.816,1029.51 630.5,1028C 626.342,1023.69 624.676,1018.53 625.5,1012.5C 623.194,1012.99 620.861,1013.33 618.5,1013.5C 616.046,1025.57 608.713,1030.4 596.5,1028C 593.689,1026.36 591.356,1024.19 589.5,1021.5C 583.368,1027.6 576.035,1029.77 567.5,1028C 563.612,1025.78 560.779,1022.61 559,1018.5C 551.384,1027.12 541.884,1030.28 530.5,1028C 527.659,1026.41 524.993,1024.58 522.5,1022.5C 515.42,1028.04 507.42,1029.87 498.5,1028C 492.429,1025.43 488.762,1020.93 487.5,1014.5C 484.164,1013.76 480.83,1013.09 477.5,1012.5C 473.723,1017.21 470.057,1022.04 466.5,1027C 462.206,1029.39 458.373,1028.89 455,1025.5C 453.97,1021.23 453.303,1016.89 453,1012.5C 451.226,1018.55 448.059,1023.72 443.5,1028C 441.167,1028.67 438.833,1028.67 436.5,1028C 434.978,1026.48 433.478,1024.98 432,1023.5C 429.711,1025.06 427.211,1026.23 424.5,1027C 419.931,1028.37 415.265,1029.53 410.5,1030.5C 402.624,1030.15 400.624,1026.65 404.5,1020C 407.146,1019.5 409.813,1019.34 412.5,1019.5C 412.422,1015.34 410.755,1012.01 407.5,1009.5C 403.868,1014.57 399.868,1019.4 395.5,1024C 392.875,1024.72 391.208,1023.72 390.5,1021C 397.311,1011.89 402.977,1002.05 407.5,991.5C 408.025,990.808 408.692,990.308 409.5,990C 412.146,989.503 414.813,989.336 417.5,989.5C 417.245,992.016 416.411,994.35 415,996.5C 414.333,998.167 414.333,999.833 415,1001.5C 419.619,1006.74 422.619,1012.74 424,1019.5C 426.628,1017.87 428.961,1015.87 431,1013.5C 431.184,1005.92 431.684,998.421 432.5,991C 435.099,990.231 437.599,990.398 440,991.5C 440.534,1000.51 441.201,1009.51 442,1018.5C 445.791,1009.11 449.957,999.947 454.5,991C 456.769,990.242 458.936,990.409 461,991.5C 461.192,1000.54 461.859,1009.54 463,1018.5C 464.752,1015.33 466.752,1012.33 469,1009.5C 469.333,1005.17 469.667,1000.83 470,996.5C 472.938,990.327 477.271,988.994 483,992.5C 483.497,996.524 483.331,1000.52 482.5,1004.5C 487.304,1005.29 490.137,1003.29 491,998.5C 498.519,989.183 506.853,988.183 516,995.5C 517.749,1002.25 515.916,1007.75 510.5,1012C 506.802,1013.85 503.136,1015.68 499.5,1017.5C 501.059,1019.7 503.226,1020.7 506,1020.5C 511.516,1020.41 516.183,1018.41 520,1014.5C 519.339,997.827 527.172,989.994 543.5,991C 551.334,997.793 551.334,1004.79 543.5,1012C 539.581,1013.86 535.581,1015.53 531.5,1017C 534.434,1020.34 538.1,1021.34 542.5,1020C 548.145,1018.17 552.812,1015.01 556.5,1010.5 Z"/></g>
<g><path style="opacity:1" fill="#ebebeb" d="M 605.5,959.5 C 606.822,959.33 607.989,959.663 609,960.5C 609.667,964.167 609.667,967.833 609,971.5C 605.881,979.739 602.214,987.739 598,995.5C 598.052,982.951 600.552,970.951 605.5,959.5 Z"/></g>
<g><path style="opacity:1" fill="#f1f1f1" d="M 665.5,959.5 C 666.5,959.5 667.5,959.5 668.5,959.5C 668.873,974.34 665.04,988.007 657,1000.5C 656.069,985.988 658.902,972.321 665.5,959.5 Z"/></g>
<g><path style="opacity:1" fill="#f1f1f1" d="M 692.5,959.5 C 693.5,959.5 694.5,959.5 695.5,959.5C 695.873,974.34 692.04,988.007 684,1000.5C 683.069,985.988 685.902,972.321 692.5,959.5 Z"/></g>
<g><path style="opacity:1" fill="#f0f0f0" d="M 574.5,964.5 C 575.5,964.5 576.5,964.5 577.5,964.5C 578.516,973.622 575.683,981.288 569,987.5C 569.055,979.395 570.889,971.729 574.5,964.5 Z"/></g>
<g><path style="opacity:1" fill="#090909" d="M 633.5,971.5 C 642.807,970.953 645.474,974.787 641.5,983C 633.259,986.725 629.425,984.225 630,975.5C 631.376,974.295 632.542,972.962 633.5,971.5 Z"/></g>
<g><path style="opacity:1" fill="#f0f0f0" d="M 501.5,998.5 C 503.5,998.5 505.5,998.5 507.5,998.5C 507.752,1001.32 507.252,1003.99 506,1006.5C 503.457,1008.1 500.791,1009.44 498,1010.5C 497.133,1005.9 498.3,1001.9 501.5,998.5 Z"/></g>
<g><path style="opacity:1" fill="#f4f4f4" d="M 534.5,998.5 C 541.88,999.543 542.547,1002.71 536.5,1008C 534.655,1009.13 532.655,1009.63 530.5,1009.5C 529.887,1005.07 531.22,1001.4 534.5,998.5 Z"/></g>
<g><path style="opacity:1" fill="#f2f2f2" d="M 601.5,998.5 C 602.833,998.5 604.167,998.5 605.5,998.5C 604.452,1004.18 606.119,1008.85 610.5,1012.5C 609.537,1016.46 607.204,1019.12 603.5,1020.5C 600.896,1019.73 599.062,1018.06 598,1015.5C 596.487,1009.13 597.653,1003.46 601.5,998.5 Z"/></g>
<g><path style="opacity:1" fill="#9b9b9b" d="M 552.5,997.5 C 554.167,997.5 555.833,997.5 557.5,997.5C 557.818,1002.03 557.485,1006.37 556.5,1010.5C 556.5,1006.5 556.5,1002.5 556.5,998.5C 554.901,998.768 553.568,998.434 552.5,997.5 Z"/></g>
</svg>
